<mxfile host="app.diagrams.net" modified="2023-05-25T16:03:21.903Z" agent="Mozilla/5.0 (Macintosh; Intel Mac OS X 10_15_7) AppleWebKit/537.36 (KHTML, like Gecko) Chrome/113.0.0.0 Safari/537.36" etag="sqMnDrrdYmADefL8l_Ue" version="21.3.4" type="github">
  <diagram name="Page-1" id="Qmdx0PAj4yWVhrKzBrqR">
    <mxGraphModel dx="1067" dy="598" grid="1" gridSize="10" guides="1" tooltips="1" connect="1" arrows="1" fold="1" page="1" pageScale="1" pageWidth="827" pageHeight="1169" math="0" shadow="0">
      <root>
        <mxCell id="0" />
        <mxCell id="1" parent="0" />
        <mxCell id="R7DT8p5h21Qsgw4IbqDX-1" value="States Table" style="swimlane;fontStyle=0;childLayout=stackLayout;horizontal=1;startSize=30;horizontalStack=0;resizeParent=1;resizeParentMax=0;resizeLast=0;collapsible=1;marginBottom=0;whiteSpace=wrap;html=1;fillColor=#647687;fontColor=#ffffff;strokeColor=#314354;" vertex="1" parent="1">
          <mxGeometry x="70" y="80" width="140" height="120" as="geometry" />
        </mxCell>
        <mxCell id="R7DT8p5h21Qsgw4IbqDX-2" value="Name" style="text;strokeColor=#314354;fillColor=#647687;align=left;verticalAlign=middle;spacingLeft=4;spacingRight=4;overflow=hidden;points=[[0,0.5],[1,0.5]];portConstraint=eastwest;rotatable=0;whiteSpace=wrap;html=1;fontColor=#ffffff;" vertex="1" parent="R7DT8p5h21Qsgw4IbqDX-1">
          <mxGeometry y="30" width="140" height="30" as="geometry" />
        </mxCell>
        <mxCell id="R7DT8p5h21Qsgw4IbqDX-3" value="Lat" style="text;strokeColor=#314354;fillColor=#647687;align=left;verticalAlign=middle;spacingLeft=4;spacingRight=4;overflow=hidden;points=[[0,0.5],[1,0.5]];portConstraint=eastwest;rotatable=0;whiteSpace=wrap;html=1;fontColor=#ffffff;" vertex="1" parent="R7DT8p5h21Qsgw4IbqDX-1">
          <mxGeometry y="60" width="140" height="30" as="geometry" />
        </mxCell>
        <mxCell id="R7DT8p5h21Qsgw4IbqDX-4" value="Lng" style="text;strokeColor=#314354;fillColor=#647687;align=left;verticalAlign=middle;spacingLeft=4;spacingRight=4;overflow=hidden;points=[[0,0.5],[1,0.5]];portConstraint=eastwest;rotatable=0;whiteSpace=wrap;html=1;fontColor=#ffffff;" vertex="1" parent="R7DT8p5h21Qsgw4IbqDX-1">
          <mxGeometry y="90" width="140" height="30" as="geometry" />
        </mxCell>
        <mxCell id="R7DT8p5h21Qsgw4IbqDX-16" style="edgeStyle=orthogonalEdgeStyle;rounded=0;orthogonalLoop=1;jettySize=auto;html=1;exitX=0;exitY=0.5;exitDx=0;exitDy=0;entryX=0.5;entryY=0;entryDx=0;entryDy=0;" edge="1" parent="1" source="R7DT8p5h21Qsgw4IbqDX-7" target="R7DT8p5h21Qsgw4IbqDX-1">
          <mxGeometry relative="1" as="geometry" />
        </mxCell>
        <mxCell id="R7DT8p5h21Qsgw4IbqDX-17" style="edgeStyle=orthogonalEdgeStyle;rounded=0;orthogonalLoop=1;jettySize=auto;html=1;exitX=0.5;exitY=1;exitDx=0;exitDy=0;" edge="1" parent="1" source="R7DT8p5h21Qsgw4IbqDX-7" target="R7DT8p5h21Qsgw4IbqDX-12">
          <mxGeometry relative="1" as="geometry" />
        </mxCell>
        <mxCell id="R7DT8p5h21Qsgw4IbqDX-7" value="&lt;h2&gt;Backend System&lt;/h2&gt;" style="text;html=1;strokeColor=none;fillColor=none;align=center;verticalAlign=middle;whiteSpace=wrap;rounded=0;" vertex="1" parent="1">
          <mxGeometry x="300" y="10" width="170" height="40" as="geometry" />
        </mxCell>
        <mxCell id="R7DT8p5h21Qsgw4IbqDX-12" value="&lt;table border=&quot;1&quot; width=&quot;100%&quot; height=&quot;100%&quot; cellpadding=&quot;4&quot; style=&quot;width:100%;height:100%;border-collapse:collapse;&quot;&gt;&lt;tbody&gt;&lt;tr&gt;&lt;th align=&quot;center&quot;&gt;Location Table&lt;/th&gt;&lt;/tr&gt;&lt;tr&gt;&lt;td align=&quot;center&quot;&gt;Logo&lt;br&gt;Name&lt;br&gt;Address&lt;br&gt;Lat&lt;br&gt;Lng&lt;/td&gt;&lt;/tr&gt;&lt;tr&gt;&lt;td align=&quot;center&quot;&gt;Screen Price&lt;br&gt;Total Screens&lt;br&gt;...&lt;/td&gt;&lt;/tr&gt;&lt;/tbody&gt;&lt;/table&gt;" style="text;html=1;whiteSpace=wrap;strokeColor=#314354;fillColor=#647687;overflow=fill;fontColor=#ffffff;" vertex="1" parent="1">
          <mxGeometry x="295" y="80" width="180" height="180" as="geometry" />
        </mxCell>
        <mxCell id="R7DT8p5h21Qsgw4IbqDX-13" value="Frontend System" style="text;strokeColor=none;fillColor=none;html=1;fontSize=24;fontStyle=1;verticalAlign=middle;align=center;" vertex="1" parent="1">
          <mxGeometry x="255" y="340" width="260" height="40" as="geometry" />
        </mxCell>
        <mxCell id="R7DT8p5h21Qsgw4IbqDX-19" style="edgeStyle=orthogonalEdgeStyle;rounded=0;orthogonalLoop=1;jettySize=auto;html=1;exitX=0.5;exitY=1;exitDx=0;exitDy=0;" edge="1" parent="1" source="R7DT8p5h21Qsgw4IbqDX-15" target="R7DT8p5h21Qsgw4IbqDX-18">
          <mxGeometry relative="1" as="geometry" />
        </mxCell>
        <mxCell id="R7DT8p5h21Qsgw4IbqDX-15" value="&lt;h2&gt;Dashboard&lt;/h2&gt;" style="text;html=1;strokeColor=none;fillColor=none;align=center;verticalAlign=middle;whiteSpace=wrap;rounded=0;" vertex="1" parent="1">
          <mxGeometry x="50" y="390" width="170" height="40" as="geometry" />
        </mxCell>
        <mxCell id="R7DT8p5h21Qsgw4IbqDX-18" value="" style="shape=ext;double=1;rounded=0;whiteSpace=wrap;html=1;" vertex="1" parent="1">
          <mxGeometry x="50" y="490" width="720" height="340" as="geometry" />
        </mxCell>
        <mxCell id="R7DT8p5h21Qsgw4IbqDX-20" value="Google Map" style="text;strokeColor=none;fillColor=none;html=1;fontSize=24;fontStyle=1;verticalAlign=middle;align=center;" vertex="1" parent="1">
          <mxGeometry x="410" y="450" width="240" height="40" as="geometry" />
        </mxCell>
        <mxCell id="R7DT8p5h21Qsgw4IbqDX-21" value="" style="shape=ext;double=1;rounded=1;whiteSpace=wrap;html=1;" vertex="1" parent="1">
          <mxGeometry x="70" y="510" width="360" height="215" as="geometry" />
        </mxCell>
        <mxCell id="R7DT8p5h21Qsgw4IbqDX-22" value="" style="shape=ext;double=1;whiteSpace=wrap;html=1;aspect=fixed;" vertex="1" parent="1">
          <mxGeometry x="92.5" y="533.75" width="166.25" height="166.25" as="geometry" />
        </mxCell>
        <mxCell id="R7DT8p5h21Qsgw4IbqDX-23" value="Map" style="text;html=1;strokeColor=none;fillColor=none;align=center;verticalAlign=middle;whiteSpace=wrap;rounded=0;" vertex="1" parent="1">
          <mxGeometry x="110" y="510" width="60" height="30" as="geometry" />
        </mxCell>
        <mxCell id="R7DT8p5h21Qsgw4IbqDX-24" value="" style="shape=ext;double=1;whiteSpace=wrap;html=1;aspect=fixed;" vertex="1" parent="1">
          <mxGeometry x="110" y="560" width="120" height="120" as="geometry" />
        </mxCell>
        <mxCell id="R7DT8p5h21Qsgw4IbqDX-25" value="Marker" style="text;html=1;strokeColor=none;fillColor=none;align=center;verticalAlign=middle;whiteSpace=wrap;rounded=0;" vertex="1" parent="1">
          <mxGeometry x="130" y="533.75" width="60" height="30" as="geometry" />
        </mxCell>
        <mxCell id="R7DT8p5h21Qsgw4IbqDX-26" value="" style="shape=ext;double=1;whiteSpace=wrap;html=1;aspect=fixed;" vertex="1" parent="1">
          <mxGeometry x="130" y="585" width="80" height="80" as="geometry" />
        </mxCell>
        <mxCell id="R7DT8p5h21Qsgw4IbqDX-27" value="Info Window" style="text;html=1;strokeColor=none;fillColor=none;align=center;verticalAlign=middle;whiteSpace=wrap;rounded=0;" vertex="1" parent="1">
          <mxGeometry x="115" y="560" width="110" height="30" as="geometry" />
        </mxCell>
        <mxCell id="R7DT8p5h21Qsgw4IbqDX-28" value="" style="endArrow=none;html=1;rounded=0;" edge="1" parent="1">
          <mxGeometry width="50" height="50" relative="1" as="geometry">
            <mxPoint y="920" as="sourcePoint" />
            <mxPoint x="820" y="920" as="targetPoint" />
          </mxGeometry>
        </mxCell>
      </root>
    </mxGraphModel>
  </diagram>
</mxfile>
